<svg width="70" height="67" xmlns="http://www.w3.org/2000/svg">
 <title/>

 <g>
  <title>background</title>
  <rect fill="none" id="canvas_background" height="69" width="72" y="-1" x="-1"/>
 </g>
 <g>
  <title>Layer 1</title>
  <ellipse fill-opacity="0" ry="19.603976" rx="19.570973" id="svg_1" cy="27.128734" cx="39.4961" stroke-width="1.5" stroke="#14cfae" fill="#0fffff"/>
  <g id="svg_2">
   <path fill="none" stroke="#14cfae" stroke-linecap="round" stroke-linejoin="round" id="_Path_" d="m39.496102,15.628733l0,0a3.3,3.3 0 0 1 1.83,0.55l8.78,5.85a2,2 0 0 1 0.89,1.66l0,6.86a2,2 0 0 1 -0.89,1.66l-8.78,5.85a3.3,3.3 0 0 1 -1.83,0.57l0,0a3.3,3.3 0 0 1 -1.83,-0.55l-8.78,-5.86a2,2 0 0 1 -0.89,-1.66l0,-6.86a2,2 0 0 1 0.89,-1.66l8.78,-5.85a3.3,3.3 0 0 1 1.83,-0.56z"/>
   <polygon fill="none" stroke="#14cfae" stroke-linecap="round" stroke-linejoin="round" points="37.99610137939453,18.62873363494873 37.99610137939453,23.62873363494873 34.99610137939453,25.62873363494873 30.99610137939453,23.12873363494873 37.99610137939453,18.62873363494873 " id="_Path_2"/>
   <polygon fill="none" stroke="#14cfae" stroke-linecap="round" stroke-linejoin="round" points="40.99610137939453,18.62873363494873 40.99610137939453,23.62873363494873 43.99610137939453,25.62873363494873 47.9961051940918,23.12873363494873 40.99610137939453,18.62873363494873 " id="_Path_3"/>
   <polygon fill="none" stroke="#14cfae" stroke-linecap="round" stroke-linejoin="round" points="40.99610137939453,35.62873363494873 40.99610137939453,30.62873363494873 43.99610137939453,28.62873363494873 47.9961051940918,31.128729820251465 40.99610137939453,35.62873363494873 " id="_Path_4"/>
   <polygon fill="none" stroke="#14cfae" stroke-linecap="round" stroke-linejoin="round" points="37.99610137939453,35.62873363494873 37.99610137939453,30.62873363494873 34.99610137939453,28.62873363494873 30.99610137939453,31.128729820251465 37.99610137939453,35.62873363494873 " id="_Path_5"/>
   <polygon fill="none" stroke="#14cfae" stroke-linecap="round" stroke-linejoin="round" points="29.99610137939453,25.62873363494873 32.4961051940918,27.128731727600098 29.99610137939453,28.62873363494873 29.99610137939453,25.62873363494873 " id="_Path_6"/>
   <polygon fill="none" stroke="#14cfae" stroke-linecap="round" stroke-linejoin="round" points="48.9961051940918,28.62873363494873 46.496097564697266,27.128731727600098 48.9961051940918,25.62873363494873 48.9961051940918,28.62873363494873 " id="_Path_7"/>
   <polygon fill="none" stroke="#14cfae" stroke-linecap="round" stroke-linejoin="round" points="39.49610137939453,25.128731727600098 36.4961051940918,27.128731727600098 39.49610137939453,29.128731727600098 42.49610137939453,27.128731727600098 39.49610137939453,25.128731727600098 " id="_Path_8"/>
  </g>
 </g>
</svg>