<svg width="515" height="515" xmlns="http://www.w3.org/2000/svg">
 <title/>

 <g>
  <title>background</title>
  <rect fill="none" id="canvas_background" height="402" width="582" y="-1" x="-1"/>
 </g>
 <g>
  <title>Layer 1</title>
  <path fill="#14cfae" id="svg_1" d="m215.7,261.1l14.3,0l0,86.5c0,1.9 1.6,3.5 3.5,3.5l37.4,0c1.9,0 3.5,-1.6 3.5,-3.5l0,-86.5l21.7,0c1.8,0 3.3,-1.4 3.5,-3.1l3.3,-31.8c0.2,-1.9 -1.2,-3.6 -3.1,-3.8c-0.1,0 -0.2,0 -0.4,0l-25,0l0,-15.2c0,-1 0.1,-2 0.5,-2.9c0.4,-0.9 1.1,-1.6 2.1,-1.9c0.6,-0.2 1.2,-0.3 1.8,-0.3l20.1,0c1.9,0 3.5,-1.6 3.5,-3.5l0,-30.8c0,-1.9 -1.6,-3.5 -3.5,-3.5l-27.7,-0.1l0,0c-7,-0.2 -14,1.3 -20.4,4.2c-3.9,1.8 -7.4,4.4 -10.3,7.5c-3.9,4.2 -6.7,9.3 -8.4,14.8c-1.5,4.8 -2.2,9.7 -2.2,14.7l0,17.1l-14.3,0c-1.9,0 -3.5,1.6 -3.5,3.5l0,31.8c0.1,1.7 1.6,3.3 3.6,3.3l0,0z"/>
  <path fill="#14cfae" id="svg_2" d="m257.5,465.8c115.2,0.1 208.6,-93.1 208.8,-208.3s-93.2,-208.6 -208.3,-208.8s-208.7,93.2 -208.8,208.3c-0.1,55.4 21.9,108.5 61.1,147.7c39,39.2 92,61.1 147.2,61.1zm0,-395.7c103.6,-0.1 187.7,83.9 187.8,187.5c0.1,103.6 -83.9,187.7 -187.5,187.8c-103.6,0 -187.7,-83.9 -187.8,-187.5c0,-49.8 19.7,-97.6 55,-132.9c35.1,-35.2 82.8,-55 132.5,-54.9l0,0z"/>
 </g>
</svg>