<svg width="512" height="512" xmlns="http://www.w3.org/2000/svg">

 <g>
  <title>background</title>
  <rect fill="none" id="canvas_background" height="402" width="582" y="-1" x="-1"/>
 </g>
 <g>
  <title>Layer 1</title>
  <path id="svg_2" fill-rule="evenodd" clip-rule="evenodd" fill="#14cfae" d="m425.619,86.28c-43.447,-43.31 -103.361,-70.276 -169.654,-70.276c-66.297,0 -126.212,26.966 -169.65,70.276c-43.452,43.445 -70.286,103.492 -70.286,169.789c0,66.156 26.834,126.212 70.286,169.65c43.438,43.311 103.353,70.276 169.65,70.276c66.293,0 126.207,-26.966 169.654,-70.276c43.443,-43.438 70.277,-103.494 70.277,-169.65c0,-66.297 -26.833,-126.343 -70.277,-169.789zm-13.287,326.158c-39.993,39.988 -95.251,64.83 -156.367,64.83c-61.121,0 -116.379,-24.842 -156.372,-64.83c-40.117,-39.989 -64.831,-95.389 -64.831,-156.368c0,-61.113 24.714,-116.514 64.831,-156.502c39.993,-39.993 95.251,-64.7 156.372,-64.7c61.116,0 116.374,24.707 156.367,64.7c40.121,39.988 64.831,95.389 64.831,156.502c0,60.979 -24.71,116.378 -64.831,156.368z"/>
  <path id="svg_3" fill-rule="evenodd" clip-rule="evenodd" fill="#14cfae" d="m371.813,161.608c-9.7,5.711 -20.593,9.83 -32.015,12.088c-9.048,-9.693 -22.188,-15.675 -36.805,-15.675c-27.634,0 -50.224,22.188 -50.224,49.419c0,3.987 0.672,7.709 1.467,11.298c-41.848,-1.995 -78.917,-21.658 -103.631,-51.684c-4.25,7.44 -6.904,15.812 -6.904,24.845c0,17.271 9.88,32.415 23.163,41.186c-8.233,-0.133 -16.865,-2.395 -21.865,-6.113c0,0.267 0,0.399 0,0.664c0,6.377 0.35,12.225 2.602,17.802c6.119,15.549 19.646,27.236 36.519,30.558c-4.391,1.197 -8.853,1.855 -13.5,1.855c-3.189,0 -6.484,-0.397 -9.546,-1.061c6.516,19.666 24.927,34.013 46.854,34.543c-17.276,13.286 -38.822,21.122 -62.339,21.122c-4.126,0 -7.985,-0.265 -12.102,-0.662c22.315,13.949 48.748,22.188 77.049,22.188c78.518,0 126.765,-54.341 139.38,-110.803c2.267,-10.093 3.082,-20.058 3.082,-29.889c0,-2.127 0,-4.382 0,-6.378c10,-7.041 18.574,-15.812 25.219,-25.642c-8.906,3.856 -18.483,6.513 -28.714,7.838c10.497,-6.241 18.582,-15.809 22.31,-27.499z"/>
 </g>
</svg>